#!OML:ASF F:\VICON\USERDATA\INSTALL\rory3\rory3.ASF
:FULLY-SPECIFIED
:DEGREES
3633
root 13.8944 18.2601 6.41954 545.062 -12.0386 179.52
lowerback 13.0533 7.24624 4.28789
upperback 2.94821 9.64601 -3.96794
thorax -2.69917 4.66628 -7.92676
lowerneck -16.6168 16.2451 -6.32713
upperneck 47.2318 22.744 3.39443
head 19.9908 6.86771 6.70848
rclavicle 1.41435e-013 -4.23411e-014
rhumerus -31.39 -9.59367 -73.4044
rradius 46.5669
rwrist 0.305467
rhand -15.71 6.52383
rfingers 7.12502
rthumb 10.4799 -23.1949
lclavicle 1.41435e-013 -4.23411e-014
lhumerus -30.5731 12.2611 77.4817
lradius 29.6973
lwrist -6.44504
lhand -18.503 28.1657
lfingers 7.12502
lthumb 7.78486 58.0024
rfemur -6.49468 -5.12006 25.7816
rtibia 29.2116
rfoot -13.0593 -1.10885
rtoes -5.4599
lfemur -24.2024 -9.80429 -17.6973
ltibia 35.4144
lfoot -9.87581 -8.87621
ltoes -12.0834
3634
root 13.8817 18.2727 6.50134 545.006 -11.8824 179.391
lowerback 13.0067 7.2008 4.17673
upperback 2.92842 9.5684 -3.99648
thorax -2.72125 4.62607 -7.88324
lowerneck -16.6896 16.27 -6.33233
upperneck 47.3087 22.7623 3.45396
head 20.0451 6.86143 6.75332
rclavicle -2.79292e-014 1.39149e-015
rhumerus -31.8823 -9.54012 -73.7617
rradius 46.2209
rwrist 0.549588
rhand -16.0317 6.1512
rfingers 7.12502
rthumb 10.1696 -23.583
lclavicle -2.79292e-014 1.39149e-015
lhumerus -30.7465 11.5027 77.7685
lradius 30.3452
lwrist -5.56215
lhand -18.4764 29.2021
lfingers 7.12502
lthumb 7.81056 59.0379
rfemur -6.95901 -5.06865 25.5015
rtibia 29.6325
rfoot -12.9109 -0.971754
rtoes -5.71127
lfemur -23.6002 -10.1121 -17.6996
ltibia 36.3554
lfoot -10.2077 -8.48713
ltoes -12.3971
3635
root 13.8687 18.2805 6.58466 544.902 -11.7743 179.25
lowerback 12.9652 7.10157 4.03433
upperback 2.94291 9.41535 -3.98292
thorax -2.73426 4.54817 -7.76778
lowerneck -16.6456 16.2889 -6.43103
upperneck 47.1913 22.8127 3.43664
head 19.9325 6.88164 6.74112
rclavicle -5.79457e-014 -3.71727e-014
rhumerus -32.288 -9.4586 -74.0375
rradius 45.8887
rwrist 0.408204
rhand -15.7255 5.93851
rfingers 7.12502
rthumb 10.4649 -23.781
lclavicle -5.79457e-014 -3.71727e-014
lhumerus -30.8154 11.1916 77.9842
lradius 30.7789
lwrist -4.9794
lhand -18.1695 28.7554
lfingers 7.12502
lthumb 8.10675 58.5799
rfemur -7.2785 -5.01498 25.202
rtibia 29.9942
rfoot -12.8936 -0.820744
rtoes -5.39483
lfemur -22.9184 -10.4212 -17.7424
ltibia 37.2487
lfoot -10.3589 -8.23987
ltoes -12.5775
3636
root 13.8558 18.2883 6.66967 544.897 -11.6159 179.109
lowerback 12.8145 7.04371 3.88516
upperback 2.95037 9.31872 -3.9627
thorax -2.6885 4.50256 -7.6317
lowerneck -16.5465 16.288 -6.51635
upperneck 47.0714 22.8223 3.40034
head 19.8152 6.88729 6.706
rclavicle 2.37548e-014 2.24627e-014
rhumerus -32.6152 -9.5734 -74.179
rradius 45.5391
rwrist -0.142362
rhand -14.932 5.80184
rfingers 7.12502
rthumb 11.2304 -23.8776
lclavicle 2.37548e-014 2.24627e-014
lhumerus -30.7724 11.0078 78.3
lradius 31.1864
lwrist -4.40141
lhand -18.0264 27.566
lfingers 7.12502
lthumb 8.24484 57.3851
rfemur -7.75066 -4.85178 24.894
rtibia 30.2934
rfoot -12.8072 -0.644592
rtoes -4.72497
lfemur -22.3352 -10.6097 -17.7905
ltibia 38.1111
lfoot -10.3661 -8.11655
ltoes -12.7369
3637
root 13.8409 18.2915 6.75168 544.801 -11.4082 179.077
lowerback 12.7967 6.98913 3.8345
upperback 2.90805 9.24611 -3.91729
thorax -2.75126 4.46412 -7.55004
lowerneck -16.5305 16.3083 -6.48705
upperneck 47.1291 22.8362 3.3697
head 19.8627 6.87164 6.6929
rclavicle -1.28663e-013 4.53229e-014
rhumerus -33.036 -9.55683 -74.3846
rradius 45.0711
rwrist -0.132451
rhand -14.6995 5.65105
rfingers 7.12502
rthumb 11.4546 -24.016
lclavicle -1.28663e-013 4.53229e-014
lhumerus -30.8688 10.7386 78.5812
lradius 31.6329
lwrist -3.84304
lhand -18.62 28.925
lfingers 7.12502
lthumb 7.67195 58.7659
rfemur -8.15891 -4.70727 24.67
rtibia 30.5955
rfoot -12.6754 -0.344877
rtoes -4.99396
lfemur -21.6168 -10.7904 -17.7461
ltibia 38.8985
lfoot -10.4029 -8.07057
ltoes -12.3935
3638
root 13.8264 18.2938 6.82776 544.609 -11.1909 179.116
lowerback 12.7993 6.92852 3.82043
upperback 2.91076 9.16871 -3.84132
thorax -2.77714 4.42429 -7.45426
lowerneck -16.6608 16.3087 -6.49893
upperneck 47.2178 22.8429 3.39995
head 19.9492 6.84659 6.73271
rclavicle -1.41386e-013 4.77083e-015
rhumerus -33.5689 -9.49247 -74.6605
rradius 44.7208
rwrist 0.622965
rhand -14.995 5.61652
rfingers 7.12502
rthumb 11.1695 -24.0662
lclavicle -1.41386e-013 4.77083e-015
lhumerus -30.8654 10.8058 78.6878
lradius 31.7359
lwrist -3.79474
lhand -18.9271 29.5697
lfingers 7.12502
lthumb 7.3755 59.4212
rfemur -8.36383 -4.65392 24.5399
rtibia 30.8902
rfoot -12.6325 -0.0572683
rtoes -6.18076
lfemur -20.8154 -10.8007 -17.6685
ltibia 39.6101
lfoot -10.5482 -8.20414
ltoes -12.117
3639
root 13.8121 18.3013 6.90505 544.485 -10.9799 179.122
lowerback 12.7272 6.86606 3.78716
upperback 2.9206 9.08579 -3.77104
thorax -2.75777 4.38433 -7.34178
lowerneck -16.6488 16.3312 -6.55811
upperneck 47.2066 22.8599 3.45092
head 19.9107 6.85107 6.75702
rclavicle -6.76862e-014 2.5842e-014
rhumerus -34.0485 -9.48818 -74.8894
rradius 44.3595
rwrist 1.16219
rhand -15.1744 5.59602
rfingers 7.12502
rthumb 10.9966 -24.096
lclavicle -6.76862e-014 2.5842e-014
lhumerus -30.8421 10.6905 78.8691
lradius 31.8922
lwrist -3.60791
lhand -18.6846 28.988
lfingers 7.12502
lthumb 7.60957 58.8311
rfemur -8.63638 -4.59334 24.3929
rtibia 31.1911
rfoot -12.6366 0.187733
rtoes -7.22503
lfemur -20.1021 -10.8361 -17.6359
ltibia 40.2218
lfoot -10.6036 -8.49972
ltoes -12.8703
3640
root 13.796 18.3092 6.98847 544.421 -10.7544 179.136
lowerback 12.6999 6.78305 3.80493
upperback 2.85603 8.98688 -3.73173
thorax -2.82992 4.33325 -7.30154
lowerneck -16.5341 16.3806 -6.52857
upperneck 47.1298 22.8962 3.43023
head 19.8323 6.8791 6.72304
rclavicle -1.36167e-013 -3.37934e-015
rhumerus -34.5035 -9.5067 -75.1323
rradius 43.9275
rwrist 1.16569
rhand -15.1979 5.58938
rfingers 7.12502
rthumb 10.9739 -24.1038
lclavicle -1.36167e-013 -3.37934e-015
lhumerus -30.947 10.2869 79.0691
lradius 32.2374
lwrist -3.16768
lhand -18.5849 28.8264
lfingers 7.12502
lthumb 7.70585 58.666
rfemur -9.05768 -4.57591 24.2476
rtibia 31.5272
rfoot -12.7255 0.489539
rtoes -9.33292
lfemur -19.3677 -10.986 -17.5966
ltibia 40.7395
lfoot -10.172 -8.96932
ltoes -13.3863
3641
root 13.7786 18.3157 7.06758 544.358 -10.4888 179.022
lowerback 12.6578 6.7376 3.69004
upperback 2.78942 8.91561 -3.73237
thorax -2.90622 4.29511 -7.23195
lowerneck -16.5125 16.3741 -6.51845
upperneck 47.1128 22.8346 3.49422
head 19.8031 6.86445 6.73164
rclavicle 1.9456e-013 -1.61016e-014
rhumerus -34.987 -9.66451 -75.3543
rradius 43.5874
rwrist 1.09898
rhand -14.8751 5.41052
rfingers 7.12502
rthumb 11.2853 -24.2659
lclavicle 1.9456e-013 -1.61016e-014
lhumerus -30.9895 9.86503 79.3192
lradius 32.4992
lwrist -2.79193
lhand -18.7141 27.8575
lfingers 7.12502
lthumb 7.58108 57.7017
rfemur -9.40714 -4.55477 23.9307
rtibia 31.8414
rfoot -12.7931 0.944134
rtoes -10.1461
lfemur -18.527 -11.1177 -17.7261
ltibia 41.1971
lfoot -9.4024 -9.67778
ltoes -11.7212
3642
root 13.7609 18.3185 7.14034 544.272 -10.2804 178.833
lowerback 12.5255 6.68704 3.4753
upperback 2.8069 8.8181 -3.71845
thorax -2.86613 4.24819 -7.06903
lowerneck -16.6493 16.3424 -6.53891
upperneck 47.2219 22.7601 3.59674
head 19.8908 6.81552 6.79405
rclavicle 4.66647e-014 3.97569e-015
rhumerus -35.3062 -9.86011 -75.5387
rradius 43.2402
rwrist 1.16122
rhand -14.1226 4.83334
rfingers 7.12502
rthumb 12.0109 -24.802
lclavicle 4.66647e-014 3.97569e-015
lhumerus -30.9481 9.39335 79.6777
lradius 32.8493
lwrist -2.29899
lhand -18.4283 27.6539
lfingers 7.12502
lthumb 7.85699 57.4879
rfemur -9.64667 -4.48264 23.5092
rtibia 32.0906
rfoot -12.6612 1.51554
rtoes -8.418
lfemur -17.6541 -11.2178 -17.9711
ltibia 41.6374
lfoot -8.97784 -10.2527
ltoes -10.5114
3643
root 13.7413 18.3178 7.21493 544.149 -10.0031 178.876
lowerback 12.3078 6.6129 3.45262
upperback 2.8622 8.72152 -3.61395
thorax -2.72427 4.20743 -6.90085
lowerneck -16.7086 16.3559 -6.48501
upperneck 47.2963 22.7625 3.57925
head 19.9731 6.79499 6.79499
rclavicle -1.2111e-013 -2.18663e-014
rhumerus -35.4618 -9.80477 -75.7424
rradius 42.6242
rwrist 1.34453
rhand -14.0442 5.00676
rfingers 7.12502
rthumb 12.0865 -24.6242
lclavicle -1.2111e-013 -2.18663e-014
lhumerus -30.9983 9.08639 80.0111
lradius 33.35
lwrist -1.88709
lhand -18.1469 28.1101
lfingers 7.12502
lthumb 8.12856 57.9337
rfemur -9.86535 -4.24719 23.3266
rtibia 32.2716
rfoot -12.4286 2.15169
rtoes -6.49013
lfemur -16.7585 -11.3439 -17.9859
ltibia 42.0574
lfoot -8.9597 -10.6744
ltoes -10.5225
